<svg width="66" height="420" viewBox="0 0 66 420" fill="none" xmlns="http://www.w3.org/2000/svg">
<path d="M1.616 399.968C1.616 401.589 2.23466 402.656 3.472 403.168C4.66666 403.68 6.608 403.936 9.296 403.936L19.536 403.936L19.536 395.488L20.688 395.488L20.688 403.936L48.848 403.936L48.848 396.128L50 396.128L50 419.36L48.848 419.36L48.848 415.84L20.688 415.84L20.688 419.552L19.536 419.552L19.536 415.84L19.28 415.84C13.136 415.84 8.48533 414.667 5.328 412.32C2.128 409.973 0.527995 406.048 0.527995 400.544C0.527995 396.917 1.25333 394.315 2.704 392.736C4.112 391.157 5.75466 390.368 7.63199 390.368C9.50933 390.368 10.9173 390.859 11.856 391.84C12.7947 392.821 13.264 394.123 13.264 395.744C13.264 397.365 12.8587 398.624 12.048 399.52C11.1947 400.373 10.2347 400.8 9.168 400.8C8.05866 400.8 6.992 400.672 5.968 400.416L5.968 397.984C3.06666 397.131 1.616 397.792 1.616 399.968ZM50.64 379.278C50.64 384.782 49.232 388.921 46.416 391.694C43.5573 394.425 39.6107 395.79 34.576 395.79C29.4987 395.79 25.616 394.254 22.928 391.182C20.24 388.067 18.896 384.121 18.896 379.342C18.896 369.657 23.76 365.006 33.488 365.39L33.488 383.438L35.984 383.438C40.1653 383.438 43.3227 382.905 45.456 381.838C47.5893 380.771 48.656 378.915 48.656 376.27C48.656 371.321 46.0107 368.078 40.72 366.542L40.912 365.39C43.984 366.201 46.3733 367.673 48.08 369.806C49.7867 371.897 50.64 375.054 50.64 379.278ZM32.208 383.374L32.208 376.782L29.072 376.782C25.616 376.782 23.2693 376.995 22.032 377.422C20.752 377.806 20.112 378.617 20.112 379.854C20.112 381.049 20.7947 381.945 22.16 382.542C23.4827 383.097 25.7867 383.374 29.072 383.374L32.208 383.374ZM34.96 347.75L34.96 345.894L30.032 345.894C25.9787 345.894 23.2693 346.129 21.904 346.598C20.496 347.025 19.792 347.878 19.792 349.158C19.792 349.926 20.0053 350.63 20.432 351.27C20.816 351.867 21.3707 352.166 22.096 352.166C22.7787 352.166 23.4827 352.038 24.208 351.782L24.208 350.182C25.104 349.841 26.192 349.67 27.472 349.67C28.7093 349.67 29.7973 350.203 30.736 351.27C31.632 352.337 32.08 353.681 32.08 355.302C32.08 358.971 30.3093 360.806 26.768 360.806C21.52 360.806 18.896 356.347 18.896 347.43C18.896 342.353 19.7707 338.854 21.52 336.934C23.2267 334.971 26.384 333.99 30.992 333.99L43.984 333.99C46.2027 333.99 47.312 333.371 47.312 332.134C47.312 330.683 45.1147 329.83 40.72 329.574L40.784 328.614C44.5387 328.785 47.12 329.489 48.528 330.726C49.936 331.963 50.64 333.99 50.64 336.806C50.64 341.926 49.0613 344.87 45.904 345.638C47.5253 346.193 48.72 347.025 49.488 348.134C50.256 349.243 50.64 350.865 50.64 352.998C50.64 359.313 48.0587 362.47 42.896 362.47C39.8667 362.47 37.7973 361.275 36.688 358.886C35.536 356.454 34.96 352.742 34.96 347.75ZM42.832 350.31C45.0507 350.31 46.48 350.203 47.12 349.99C47.76 349.734 48.08 349.286 48.08 348.646C48.08 347.963 47.5467 347.345 46.48 346.79C45.3707 346.193 43.856 345.894 41.936 345.894L35.984 345.894L35.984 346.342C35.984 348.987 37.9253 350.31 41.808 350.31L42.832 350.31ZM40.848 325.722L20.688 325.722L20.688 329.242L19.536 329.242L19.536 325.722L11.28 325.722L8.33599 313.818L19.536 313.818L19.536 305.498L20.688 305.498L20.688 313.818L42.256 313.818C44.2613 313.818 45.7333 313.626 46.672 313.242C47.6107 312.816 48.08 311.962 48.08 310.682C48.08 309.402 47.44 308.293 46.16 307.354C44.88 306.373 43.1307 305.733 40.912 305.434L41.04 304.346C43.984 304.688 46.3307 305.626 48.08 307.162C49.7867 308.698 50.64 311.237 50.64 314.778C50.64 318.32 49.936 321.029 48.528 322.906C47.12 324.784 44.56 325.722 40.848 325.722ZM50 266.607L50 281.199L45.328 281.903C47.0347 282.586 48.3573 283.61 49.296 284.975C50.192 286.298 50.64 288.282 50.64 290.927C50.64 297.541 47.0773 300.847 39.952 300.847L20.688 300.847L20.688 304.431L19.536 304.431L19.536 288.943L41.488 288.943C44.048 288.943 45.7333 288.773 46.544 288.431C47.3547 288.047 47.76 287.322 47.76 286.255C47.76 285.146 47.0987 284.165 45.776 283.311C44.4533 282.458 42.6187 282.031 40.272 282.031L20.688 282.031L20.688 284.975L19.536 284.975L19.536 270.127L48.848 270.127L48.848 266.607L50 266.607ZM21.328 243.921C21.328 245.5 22.352 246.887 24.4 248.081C26.448 249.276 28.88 249.873 31.696 249.873L48.848 249.873L48.848 245.329L50 245.329L50 265.297L48.848 265.297L48.848 261.777L20.688 261.777L20.688 265.297L19.536 265.297L19.536 249.873L25.68 249.873C23.504 249.319 21.84 248.252 20.688 246.673C19.4933 245.095 18.896 243.303 18.896 241.297C18.896 239.292 19.472 237.671 20.624 236.433C21.7333 235.153 23.3333 234.513 25.424 234.513C27.472 234.513 29.0507 234.983 30.16 235.921C31.2693 236.86 31.824 238.311 31.824 240.273C31.824 242.193 31.184 243.623 29.904 244.561C28.624 245.457 26.8533 245.564 24.592 244.881L24.592 242.577C22.416 241.511 21.328 241.959 21.328 243.921ZM50.64 217.09C50.64 222.594 49.232 226.733 46.416 229.506C43.5573 232.237 39.6107 233.602 34.576 233.602C29.4987 233.602 25.616 232.066 22.928 228.994C20.24 225.88 18.896 221.933 18.896 217.154C18.896 207.469 23.76 202.818 33.488 203.202L33.488 221.25L35.984 221.25C40.1653 221.25 43.3227 220.717 45.456 219.65C47.5893 218.584 48.656 216.728 48.656 214.082C48.656 209.133 46.0107 205.89 40.72 204.354L40.912 203.202C43.984 204.013 46.3733 205.485 48.08 207.618C49.7867 209.709 50.64 212.866 50.64 217.09ZM32.208 221.186L32.208 214.594L29.072 214.594C25.616 214.594 23.2693 214.808 22.032 215.234C20.752 215.618 20.112 216.429 20.112 217.666C20.112 218.861 20.7947 219.757 22.16 220.354C23.4827 220.909 25.7867 221.186 29.072 221.186L32.208 221.186ZM36.752 187.93C41.232 187.93 44.2187 187.696 45.712 187.226C47.1627 186.757 47.888 185.904 47.888 184.666C47.888 183.386 47.3333 182.298 46.224 181.402C45.1147 180.464 43.472 179.994 41.296 179.994L27.344 179.994C25.5093 179.994 23.952 180.357 22.672 181.082C21.392 181.808 20.752 182.874 20.752 184.282C20.752 185.69 21.6907 186.65 23.568 187.162C25.4453 187.674 28.7307 187.93 33.424 187.93L36.752 187.93ZM50 179.162L45.52 179.866C48.9333 181.317 50.64 184.261 50.64 188.698C50.64 192.368 49.3173 195.226 46.672 197.274C44.0267 199.28 40.08 200.282 34.832 200.282C24.208 200.282 18.896 196.058 18.896 187.61C18.896 183.856 19.9413 181.381 22.032 180.186L3.15199 180.186L3.15199 184.09L1.99999 184.09L1.99999 168.09L48.848 168.09L48.848 164.954L50 164.954L50 179.162ZM50.64 150.325L39.184 150.325L39.184 149.557C42.896 148.448 45.4987 146.955 46.992 145.077C48.4853 143.2 49.232 140.853 49.232 138.037C49.232 133.685 47.8453 131.509 45.072 131.509C43.8773 131.509 42.9813 132.043 42.384 133.109C41.4453 134.773 40.72 136.907 40.208 139.509C39.44 142.411 38.416 144.843 37.136 146.805C35.6 149.152 33.168 150.325 29.84 150.325C26.512 150.325 23.8667 149.301 21.904 147.253C19.8987 145.205 18.896 142.475 18.896 139.061C18.896 136.971 19.3867 134.816 20.368 132.597C20.7093 131.787 20.88 131.168 20.88 130.741C20.88 130.315 20.7307 129.952 20.432 129.653C20.1333 129.355 19.5787 128.992 18.768 128.565L18.768 127.861L28.56 127.861L28.56 128.629C23.0133 130.805 20.24 134.176 20.24 138.741C20.24 140.747 20.6027 142.24 21.328 143.221C22.0107 144.203 22.8853 144.693 23.952 144.693C24.592 144.693 25.104 144.544 25.488 144.245C25.8293 143.947 26.0853 143.712 26.256 143.541C26.4267 143.371 26.6187 143.093 26.832 142.709C27.0027 142.325 27.152 142.005 27.28 141.749C27.3653 141.493 27.4933 141.109 27.664 140.597C27.8347 140.043 27.9413 139.637 27.984 139.381C28.7093 136.48 29.3493 134.389 29.904 133.109C30.416 131.829 31.056 130.613 31.824 129.461C33.4453 127.115 36.0693 125.941 39.696 125.941C43.28 125.941 46.0107 127.008 47.888 129.141C49.7227 131.275 50.64 134.197 50.64 137.909C50.64 140.555 50.0213 143.115 48.784 145.589C48.4427 146.101 48.272 146.507 48.272 146.805C48.272 147.744 49.0613 148.661 50.64 149.557L50.64 150.325ZM40.848 121.472L20.688 121.472L20.688 124.992L19.536 124.992L19.536 121.472L11.28 121.472L8.33598 109.568L19.536 109.568L19.536 101.248L20.688 101.248L20.688 109.568L42.256 109.568C44.2613 109.568 45.7333 109.376 46.672 108.992C47.6107 108.566 48.08 107.712 48.08 106.432C48.08 105.152 47.44 104.043 46.16 103.104C44.88 102.123 43.1307 101.483 40.912 101.184L41.04 100.096C43.984 100.438 46.3307 101.376 48.08 102.912C49.7867 104.448 50.64 106.987 50.64 110.528C50.64 114.07 49.936 116.779 48.528 118.656C47.12 120.534 44.56 121.472 40.848 121.472ZM37.392 78.813L31.952 78.813C27.8133 78.813 24.8053 79.0477 22.928 79.517C21.008 79.9437 20.048 80.9677 20.048 82.589C20.048 83.5277 20.3253 84.2957 20.88 84.893C21.392 85.4477 22.2667 85.853 23.504 86.109C25.424 86.493 28.3467 86.685 32.272 86.685L37.264 86.685C41.9147 86.685 44.7093 86.557 45.648 86.301C46.5867 86.0023 47.3547 85.7037 47.952 85.405C48.976 84.9357 49.488 84.0183 49.488 82.653C49.488 80.989 48.528 79.901 46.608 79.389C45.2427 79.005 42.1707 78.813 37.392 78.813ZM50.64 82.781C50.64 88.1143 49.2747 92.1463 46.544 94.877C43.8133 97.6077 39.9093 98.973 34.832 98.973C29.712 98.973 25.7867 97.5223 23.056 94.621C20.2827 91.677 18.896 87.5597 18.896 82.269C18.896 76.9783 20.176 73.0317 22.736 70.429C25.2533 67.8263 29.1147 66.525 34.32 66.525C45.2 66.525 50.64 71.9437 50.64 82.781ZM21.328 43.359C21.328 44.9377 22.352 46.3243 24.4 47.519C26.448 48.7137 28.88 49.311 31.696 49.311L48.848 49.311L48.848 44.767L50 44.767L50 64.735L48.848 64.735L48.848 61.215L20.688 61.215L20.688 64.735L19.536 64.735L19.536 49.311L25.68 49.311C23.504 48.7563 21.84 47.6897 20.688 46.111C19.4933 44.5323 18.896 42.7403 18.896 40.735C18.896 38.7297 19.472 37.1083 20.624 35.871C21.7333 34.591 23.3333 33.951 25.424 33.951C27.472 33.951 29.0506 34.4203 30.16 35.359C31.2693 36.2977 31.824 37.7483 31.824 39.711C31.824 41.631 31.184 43.0603 29.904 43.999C28.624 44.895 26.8533 45.0017 24.592 44.319L24.592 42.015C22.416 40.9483 21.328 41.3963 21.328 43.359ZM20.688 34.305L19.536 34.305L19.536 15.745L20.688 15.745L20.688 19.201L41.936 12.225L20.688 4.801L20.688 9.089L19.536 9.089L19.536 0.064997L20.688 0.0649969L20.688 3.265L55.184 15.233C59.1946 16.641 61.9893 18.2197 63.568 19.969C65.1893 21.7183 66 23.8517 66 26.369C66 28.8863 65.424 30.8703 64.272 32.321C63.12 33.7717 61.648 34.497 59.856 34.497C58.064 34.497 56.6987 34.0277 55.76 33.089C54.8213 32.1503 54.352 30.913 54.352 29.377C54.352 25.8357 55.824 24.065 58.768 24.065C59.408 24.065 60.176 24.193 61.072 24.449L61.072 26.689C62.0533 27.0303 62.864 27.073 63.504 26.817C64.144 26.561 64.464 25.985 64.464 25.089C64.464 23.3397 63.5893 21.7823 61.84 20.417C60.1333 19.0517 57.5093 17.7503 53.968 16.513L50 15.105L50 20.737L20.688 31.681L20.688 34.305Z" fill="#291E12"/>
</svg>
